<svg xmlns="http://www.w3.org/2000/svg" viewBox="0 0 1275 300"><defs><style>.cls-1{fill:#567dcf;}.cls-2{fill:#fff;}.cls-3{fill:#0f284f;}</style></defs><title>KingsBanking&amp;amp;Finance_emblem_logo</title><g id="Layer_2" data-name="Layer 2"><g id="Layer_1-2" data-name="Layer 1"><rect class="cls-1" width="300" height="300"/><path class="cls-2" d="M62.52,146.76a1.31,1.31,0,0,1,.17-.56l2.17-7.9c.43-1.58,1.65-4.75,1.65-4.75,2.44-5,8.77-8,8.77-8,2-1.24,6.57-1.46,8.11-1.5a12.36,12.36,0,0,1,7.94-.88A13,13,0,0,1,99.64,131c2,4.94,2.41,10.49.16,15.4a26.93,26.93,0,0,1-3.38,5.77,20.9,20.9,0,0,0-3.61,5.8c-2.56,7.22,0,18.09,8.65,19.35,2.2.31,6.06.42,8.11-.55a46.58,46.58,0,0,1,1.48-4.55,4.4,4.4,0,0,1,.6-.84c5.66-7.57,15.73-12.88,18.49-14.24a56.37,56.37,0,0,0,7.16-11.72c.22-.55.45-1.14.72-1.7.11-.22.24-.47.39-.73.59-1.36.93-2.21.93-2.21a10.31,10.31,0,0,0-.44-2.48c-.23-.93-.61-2.28-1-3.41-.24-.64-.42-1.06-.42-1.06a6.65,6.65,0,0,0-3,4.82c-1,.83-3.19-1-3.86-1.54a20.42,20.42,0,0,1-3-2.61,15.74,15.74,0,0,1-3.07-5.18,17.9,17.9,0,0,1-.57-2.18.58.58,0,0,0,0-.14,17.8,17.8,0,0,1-7.48,2.59c-.84.06-2.44.14-2.64-.48-.12-.35.14-.78.52-1.22a10.1,10.1,0,0,0,3.46-5.94c2-7.41-1.45-16.39-1.45-16.39a13,13,0,0,1-9.69,3.41c-1.27-.14-3-.5-3.08-2.11a7.85,7.85,0,0,0,3.85-6.83c0-2.64-.58-5-.44-7.31a23.37,23.37,0,0,1,2.14-10.36c-2.9,2.35-9.43,1.94-10.5-1.89.1.37,2.66-.42,2.86-.51,2.3-1,3-3.2,3.81-5.39a54.36,54.36,0,0,1,2.81-6.46,36.52,36.52,0,0,1,2.69-4.49c.29-.39.55-.72.79-1a4.87,4.87,0,0,1-4.43-3.25,4.55,4.55,0,0,0-1.23-1.44h0a3.6,3.6,0,0,1,2.91-.66c.5.12,1,.29,1.46.43A2.92,2.92,0,0,0,113.62,56c1.73-2.3,3.5-2.57,4.38-2.53a5,5,0,0,0-5.39-3.59,7.64,7.64,0,0,0-.86,0c-.58.07-.29-.29-.29-.29a7.15,7.15,0,0,1,1.05-1l0-.06a3.8,3.8,0,0,1,1.31-.76,6.6,6.6,0,0,1,4.8-.1,6.82,6.82,0,0,0,3.85,1.14,4.38,4.38,0,0,0-.52-5.29,2.39,2.39,0,0,0-.87-.26,3.29,3.29,0,0,1,.21-.42c3.31-1.8,6,2,6.13,2.14a7.29,7.29,0,0,1,1.48-.42,7.81,7.81,0,0,1-.79-4.45c.22-1.36.72-.35.72-.35,1.51,1.65,4.75,1.65,4.75,1.65a5.89,5.89,0,0,1,1.93.09A7.28,7.28,0,0,1,141,38.31c.74-.22.93.17.93.17a3.27,3.27,0,0,0-1,3l.22,0a4.08,4.08,0,0,0,1.26-1.16,6.82,6.82,0,0,1,1.94-2.5v0h0A6.55,6.55,0,0,1,148,36.44a16.86,16.86,0,0,0-.29,4.71l.11-.18a9.41,9.41,0,0,1,1.58-2.57,4.21,4.21,0,0,1,1.39-1.21,5.5,5.5,0,0,1,4.4-.65s-2.84,4.07-2,7.41a4.21,4.21,0,0,1,4.34-.65s-1.89,1.7-1.84,3.34a1.54,1.54,0,0,0,.35.64,15,15,0,0,0,2,.78c1,.32,1.84.52,1.84.52l.11,0,.51.23A5.71,5.71,0,0,1,164,50.89a4.66,4.66,0,0,1,.7,1.63,7.32,7.32,0,0,0,1.1.51,10.92,10.92,0,0,0,1.87.51c.49.1.77.11.77.12,6.83.9,9,4.13,9.67,5.61l2.51.22c1.57,1.53,0,3.66-.66,5.89a20.64,20.64,0,0,0-1.1,8.13c-2.41,1.81-5.74,2.65-8.15,4.47-.64-.72-.93-1.82-1.86-2.24a5.24,5.24,0,0,1-2.21,1.06c-.63-.34-.79-1.19-1.54-1.41a4.59,4.59,0,0,1-1.87,1.53c-1.1-.27-.74-2.52-2-2.36-.74.1-1.86,3-1.1,4.13a23.47,23.47,0,0,1,2.2-1.06c.59.45,2,1,2.53.12.58,0,.59.7,1.21.7a5.63,5.63,0,0,1,2.86-.59c.63.15,1.06.93,1.66,1.06s1.42-.22,2.08-.12c.9.14,1.66,1.14,2.65,1.54a25.49,25.49,0,0,0,2.64.87c3.48,1.34,10.65,1,10.07-4.38a9.08,9.08,0,0,1-.21-1l0-2.49c1.63,0,3.19,1.56,4,2.85,2.4,3.93.43,9.76-3.54,11.75a11.06,11.06,0,0,1-7.55.76c-2.6-.6-4.28-2.08-6.45-3.52,0,0-3.85-3.1-6.42-3.92a.82.82,0,0,0-.59.91c1.18-.82,1.66.44,1.74.72a2.12,2.12,0,0,1,1.56.58c.48.51,0,1.13.1,1.88a8.43,8.43,0,0,1,.42.92,1.63,1.63,0,0,1,.13.39c.61,1.79,1.09,5-2.26,6.64a2.63,2.63,0,0,1-2.37-.64,7.24,7.24,0,0,0-1.93-1.32l-.26-.1c-3.36-1-9.17-.78-10.12,2.12a3.47,3.47,0,0,0,.88,3.62,7.39,7.39,0,0,0,2.25,1.89,1.86,1.86,0,0,0,.19.11l.13.06a9,9,0,0,0,2,.73c4.66.9,7.4-2.95,7.94-3.81a2.86,2.86,0,0,1,.76.36c3.81,3.46,1.51,7.25.61,8.45a12.63,12.63,0,0,0,5.86-.9c1.42-.59,3-1.44,3.24-3a3.13,3.13,0,0,0,0-.33.22.22,0,0,0,0-.06,5.14,5.14,0,0,0-1.51-4l.13,0s0,0,0,0a7.91,7.91,0,0,1,2.31-.09h.21c2.59.28,6.4,1.78,7.51,8a10.06,10.06,0,0,1-3.49,7.51,19.59,19.59,0,0,0,6.22.7c6.92-3.45,9.39-11.24,10.1-18.38.21-2.21.25-4.42.26-6.63,0-1.91,0-3.82,0-5.72V79.83c.2-2.84,3.18-4.71,4.85-5.54a9.18,9.18,0,0,1,5-1.35c.43-.4,2.68-2.25,6.19-.41,0,0,.36.5-.37.69a3.43,3.43,0,0,0-1.48,1.27,5.11,5.11,0,0,1,2.1,1.72A7.8,7.8,0,0,1,223,78.82a1.06,1.06,0,0,1-.1,1.2,8,8,0,0,0-4.3,1,4.91,4.91,0,0,1-1.69,4.47,12.5,12.5,0,0,1,.47,1.28s6,.66,6.16,8.49v.07a1.5,1.5,0,0,1-.41.64c-.22.13-.46,0-.71-.1,0,0-1.83-2.56-4.36-2a5.84,5.84,0,0,1-3.95,4.2c-.17,4.46-1.87,18.67-16.31,30.06l7.27.37a12.23,12.23,0,0,1,5.46.8,5.08,5.08,0,0,1,2.21,1.52l.15.07a5.27,5.27,0,0,0,.57,0,8.07,8.07,0,0,0,2-.27,15,15,0,0,0,6.94-4c.5-.45,1.25-1.81,3-1.93a2.07,2.07,0,0,1,.46,0,10.77,10.77,0,0,1,6.12,3.18l0-.07s4.16,0,5.52,5.18c0,0-.16.73-.92.23a4.66,4.66,0,0,0-1.89-.36,11.56,11.56,0,0,1,.38,2.1l0,0s3.17,2.53,1.21,7.31a1.64,1.64,0,0,0,0,.22l-.05,0s-.58.45-.86-.39c0,0-.86-1.59-2-1.74a.94.94,0,0,0-.18.71c-.09.33-.22.77-.38,1.25l.08,0s2.61,2.54.15,6.3c0,0-.57.32-.72-.43a3.45,3.45,0,0,0-1.32-1.58c-.14.2-.29.41-.47.64-.86.86-2.56,1.81-5.72,1.36l-4.1-1a21.23,21.23,0,0,0-5.91-1c-1.84.08-3.35.91-5.06,1.46-1.25.39-2.58.69-3.86,1.06-3.81,1.1-7.85,2-11.54,3.08l-1.37.29c-2.32,4.78-8.8,12.32-10.11,13.81l-2,.8c-2.93,1.22-8.15,3.62-9.22,5.81a10.17,10.17,0,0,0-1.12,2.63.67.67,0,0,0,.14.19l5.24.47c.45,0,.87.07,1.23.12l1.2.12s7.77,3.16,9.78,9.28a20.58,20.58,0,0,1,.08,10.39,4.05,4.05,0,0,1-1.88,2.72,1.82,1.82,0,0,1-.37.18c-.87.45-3.22,1.68-6,3.33-.69.44-1.39.88-2.11,1.3a48.11,48.11,0,0,0-7.94,6.07,6.85,6.85,0,0,0-1.28,1.54c1.17.14,6,.58,9.06.85l1.56.18a5.51,5.51,0,0,0,.57,0c.24,0,.39,0,.39,0a4.18,4.18,0,0,0,3.64-1.94,15.68,15.68,0,0,1,8.91-4.38v0a10.36,10.36,0,0,1,1.66-.1,10.5,10.5,0,0,1,1.7.1l-.07,0a11.23,11.23,0,0,1,7.09,3.67,6,6,0,0,1,1.67,4.83c2.22,1,2.52,6.57.77,8.36-.77-1.26-1.66-2.94-3.19-2.94-.47,0-.74.42-1.21.47s-1-.36-1.65-.23c.56,2.82-1.77,7.18-3.41,7.3-1.26.1-1.88-1.32-2.76-2.12l-3.25.69a1.46,1.46,0,0,1-.45.1l-.11,0-.22,0-.15,0-3.87-.79c-3.27-.19-17.2-.68-27.5,3.91a4.88,4.88,0,0,0-1.1.65s-.44,0-.44-.34c0,0-1.14-2.78.47-4.84-2.46-1.18-8-3.51-10.44-1.63,0,0-.33-.19-.38-.87a4.75,4.75,0,0,1,1.63-4.47s-.77-5.53-2.71-7.39c0,0,0,0,0-.08,1.81-.55,4.71.33,5.44.57a.43.43,0,0,0,.18.06,11.32,11.32,0,0,1,.24-1.4c4.59-7.19,9.23-8.4,9.23-8.4a8.67,8.67,0,0,0,2.47-1.43,2.86,2.86,0,0,0,.73-2.18c0-.13-.2-.86-.41-.85-1.52.05-6.39.48-14.07,3.54-1.72-.76-3-2.05-4.77-2.7a61.07,61.07,0,0,0-6,11.21c-.38.36-.75.73-1.15,1.06-4.58,4.28-11.73,11.25-14.12,15.14a10.31,10.31,0,0,1-3.38,1.59l0,0-.31,0c-1.88.22-7.89,1.4-9.58,7.77,0,0,.83,3.37,7.46,2.64l0,0c1.06,0,3.22.27,4.28,1.83a24,24,0,0,1,5.47,11.22,7.25,7.25,0,0,1-1.57,3.44,10.33,10.33,0,0,1-1.21,6s-1.44.29-1.44-.86a24.72,24.72,0,0,0-.43-3,9,9,0,0,1-2.45.49,11,11,0,0,1-2.19,2.53,6,6,0,0,1,0,3.89s-1.28.69-1.58-.16a13.57,13.57,0,0,0-1.26-2.21,5.45,5.45,0,0,1-2.55.05l-1-.13a8.08,8.08,0,0,0-2.45-.36,5.79,5.79,0,0,1,0,3.68s-1.28.68-1.58-.17a10.41,10.41,0,0,0-2.25-3.29c-1.33,0-2.59-.05-3.82-.15l-.11-.16c-4.17-3.59-4.75-11.79-4.75-11.79a7.37,7.37,0,0,0-1.07-3.74c-.3-2.69-.06-10.18,0-12.63a.71.71,0,0,1,0-.21c-.49.1-2,.39-3.23.56a2.19,2.19,0,0,1-1,.11l0-.07a2.44,2.44,0,0,1,0-1.2c.1-1.44.66-4.18,2.89-8.38a.17.17,0,0,1,0-.07,3.55,3.55,0,0,0-3.15,0s-1.37.28-.51-1.44l0,0a1.21,1.21,0,0,1,.26-.46,13.69,13.69,0,0,1,2.88-3.59.27.27,0,0,1,.07-.08s0-.07-.05-.11l-1-1a3.38,3.38,0,0,1-1-.95c-1.86-1.67-.14-1.67-.14-1.67.66.16,1.29.28,1.9.37a18,18,0,0,0,6.17-.07c2.93-.53,5.4-1.43,6.85-4.23a9,9,0,0,0,1-3.28,13.55,13.55,0,0,0-.16-1.93c2.39-1.11,4.7-2.36,5.68-4.71.51-4.64-2.4-11.82-3.39-14.1-11.76,1.57-21.61-7.5-22.23-19a23.2,23.2,0,0,1,1-8.49c1.45-4.1,4.82-7,6.93-10.74a11.93,11.93,0,0,0,1-2.17c1.37-4.1,1.76-8.49.08-12.56-1.06-2.58-4.67-6.06-7.84-4.08l-.15.1c.65,2.94,1.8,10.92-4,13.71a23.25,23.25,0,0,1-8.63,1.73,11,11,0,0,0-4.28,1.22h0a4,4,0,0,0-.48.34l-.14.09a.1.1,0,0,1,0,.05A2.77,2.77,0,0,0,69,147.94a3,3,0,0,0,3,1.51,13.85,13.85,0,0,0,3-1.08,2.14,2.14,0,0,1,1.8.58c-.59.7-5.11,5.67-11,3.66a6.2,6.2,0,0,1-3.34-5.85ZM170.46,76.9l-.13-.2a.72.72,0,0,1,0,.22l.09,0Z"/><path d="M62.52,146.76a1.31,1.31,0,0,1,.17-.56l2.17-7.9c.43-1.58,1.65-4.75,1.65-4.75,2.44-5,8.77-8,8.77-8,2-1.24,6.57-1.46,8.11-1.5a12.36,12.36,0,0,1,7.94-.88A13,13,0,0,1,99.64,131c2,4.94,2.41,10.49.16,15.4a26.93,26.93,0,0,1-3.38,5.77,20.9,20.9,0,0,0-3.61,5.8c-2.56,7.22,0,18.09,8.65,19.35,2.2.31,6.06.42,8.11-.55a46.58,46.58,0,0,1,1.48-4.55,4.4,4.4,0,0,1,.6-.84c5.66-7.57,15.73-12.88,18.49-14.24a56.37,56.37,0,0,0,7.16-11.72c.22-.55.45-1.14.72-1.7.11-.22.24-.47.39-.73.59-1.36.93-2.21.93-2.21a10.31,10.31,0,0,0-.44-2.48c-.23-.93-.61-2.28-1-3.41-.24-.64-.42-1.06-.42-1.06a6.65,6.65,0,0,0-3,4.82c-1,.83-3.19-1-3.86-1.54a20.42,20.42,0,0,1-3-2.61,15.74,15.74,0,0,1-3.07-5.18,17.9,17.9,0,0,1-.57-2.18.58.58,0,0,0,0-.14,17.8,17.8,0,0,1-7.48,2.59c-.84.06-2.44.14-2.64-.48-.12-.35.14-.78.52-1.22a10.1,10.1,0,0,0,3.46-5.94c2-7.41-1.45-16.39-1.45-16.39a13,13,0,0,1-9.69,3.41c-1.27-.14-3-.5-3.08-2.11a7.85,7.85,0,0,0,3.85-6.83c0-2.64-.58-5-.44-7.31a23.37,23.37,0,0,1,2.14-10.36c-2.9,2.35-9.43,1.94-10.5-1.89.1.37,2.66-.42,2.86-.51,2.3-1,3-3.2,3.81-5.39a54.36,54.36,0,0,1,2.81-6.46,36.52,36.52,0,0,1,2.69-4.49c.29-.39.55-.72.79-1a4.87,4.87,0,0,1-4.43-3.25,4.55,4.55,0,0,0-1.23-1.44h0a3.6,3.6,0,0,1,2.91-.66c.5.12,1,.29,1.46.43A2.92,2.92,0,0,0,113.62,56c1.73-2.3,3.5-2.57,4.38-2.53a5,5,0,0,0-5.39-3.59,7.64,7.64,0,0,0-.86,0c-.58.07-.29-.29-.29-.29a7.15,7.15,0,0,1,1.05-1l0-.06a3.8,3.8,0,0,1,1.31-.76,6.6,6.6,0,0,1,4.8-.1,6.82,6.82,0,0,0,3.85,1.14,4.38,4.38,0,0,0-.52-5.29,2.39,2.39,0,0,0-.87-.26,3.29,3.29,0,0,1,.21-.42c3.31-1.8,6,2,6.13,2.14a7.29,7.29,0,0,1,1.48-.42,7.81,7.81,0,0,1-.79-4.45c.22-1.36.72-.35.72-.35,1.51,1.65,4.75,1.65,4.75,1.65a5.89,5.89,0,0,1,1.93.09A7.28,7.28,0,0,1,141,38.31c.74-.22.93.17.93.17a3.27,3.27,0,0,0-1,3l.22,0a4.08,4.08,0,0,0,1.26-1.16,6.82,6.82,0,0,1,1.94-2.5v0h0A6.55,6.55,0,0,1,148,36.44a16.86,16.86,0,0,0-.29,4.71l.11-.18a9.41,9.41,0,0,1,1.58-2.57,4.21,4.21,0,0,1,1.39-1.21,5.5,5.5,0,0,1,4.4-.65s-2.84,4.07-2,7.41a4.21,4.21,0,0,1,4.34-.65s-1.89,1.7-1.84,3.34a1.54,1.54,0,0,0,.35.64,15,15,0,0,0,2,.78c1,.32,1.84.52,1.84.52l.11,0,.51.23A5.71,5.71,0,0,1,164,50.89a4.66,4.66,0,0,1,.7,1.63,7.32,7.32,0,0,0,1.1.51,10.92,10.92,0,0,0,1.87.51c.49.1.77.11.77.12,6.83.9,9,4.13,9.67,5.61l2.51.22c1.57,1.53,0,3.66-.66,5.89a20.64,20.64,0,0,0-1.1,8.13c-2.41,1.81-5.74,2.65-8.15,4.47-.64-.72-.93-1.82-1.86-2.24a5.24,5.24,0,0,1-2.21,1.06c-.63-.34-.79-1.19-1.54-1.41a4.59,4.59,0,0,1-1.87,1.53c-1.1-.27-.74-2.52-2-2.36-.74.1-1.86,3-1.1,4.13a23.47,23.47,0,0,1,2.2-1.06c.59.45,2,1,2.53.12.58,0,.59.7,1.21.7a5.63,5.63,0,0,1,2.86-.59c.63.15,1.06.93,1.66,1.06s1.42-.22,2.08-.12c.9.14,1.66,1.14,2.65,1.54a25.49,25.49,0,0,0,2.64.87c3.48,1.34,10.65,1,10.07-4.38a9.08,9.08,0,0,1-.21-1l0-2.49c1.63,0,3.19,1.56,4,2.85,2.4,3.93.43,9.76-3.54,11.75a11.06,11.06,0,0,1-7.55.76c-2.6-.6-4.28-2.08-6.45-3.52,0,0-3.85-3.1-6.42-3.92a.82.82,0,0,0-.59.91c1.18-.82,1.66.44,1.74.72a2.12,2.12,0,0,1,1.56.58c.48.51,0,1.13.1,1.88a8.43,8.43,0,0,1,.42.92,1.63,1.63,0,0,1,.13.39c.61,1.79,1.09,5-2.26,6.64a2.63,2.63,0,0,1-2.37-.64,7.24,7.24,0,0,0-1.93-1.32l-.26-.1c-3.36-1-9.17-.78-10.12,2.12a3.47,3.47,0,0,0,.88,3.62,7.39,7.39,0,0,0,2.25,1.89,1.86,1.86,0,0,0,.19.11l.13.06a9,9,0,0,0,2,.73c4.66.9,7.4-2.95,7.94-3.81a2.86,2.86,0,0,1,.76.36c3.81,3.46,1.51,7.25.61,8.45a12.63,12.63,0,0,0,5.86-.9c1.42-.59,3-1.44,3.24-3a3.13,3.13,0,0,0,0-.33.22.22,0,0,0,0-.06,5.14,5.14,0,0,0-1.51-4l.13,0s0,0,0,0a7.91,7.91,0,0,1,2.31-.09h.21c2.59.28,6.4,1.78,7.51,8a10.06,10.06,0,0,1-3.49,7.51,19.59,19.59,0,0,0,6.22.7c6.92-3.45,9.39-11.24,10.1-18.38.21-2.21.25-4.42.26-6.63,0-1.91,0-3.82,0-5.72V79.83c.2-2.84,3.18-4.71,4.85-5.54a9.18,9.18,0,0,1,5-1.35c.43-.4,2.68-2.25,6.19-.41,0,0,.36.5-.37.69a3.43,3.43,0,0,0-1.48,1.27,5.11,5.11,0,0,1,2.1,1.72A7.8,7.8,0,0,1,223,78.82a1.06,1.06,0,0,1-.1,1.2,8,8,0,0,0-4.3,1,4.91,4.91,0,0,1-1.69,4.47,12.5,12.5,0,0,1,.47,1.28s6,.66,6.16,8.49v.07a1.5,1.5,0,0,1-.41.64c-.22.13-.46,0-.71-.1,0,0-1.83-2.56-4.36-2a5.84,5.84,0,0,1-3.95,4.2c-.17,4.46-1.87,18.67-16.31,30.06l7.27.37a12.23,12.23,0,0,1,5.46.8,5.08,5.08,0,0,1,2.21,1.52l.15.07a5.27,5.27,0,0,0,.57,0,8.07,8.07,0,0,0,2-.27,15,15,0,0,0,6.94-4c.5-.45,1.25-1.81,3-1.93a2.07,2.07,0,0,1,.46,0,10.77,10.77,0,0,1,6.12,3.18l0-.07s4.16,0,5.52,5.18c0,0-.16.73-.92.23a4.66,4.66,0,0,0-1.89-.36,11.56,11.56,0,0,1,.38,2.1l0,0s3.17,2.53,1.21,7.31a1.64,1.64,0,0,0,0,.22l-.05,0s-.58.45-.86-.39c0,0-.86-1.59-2-1.74a.94.94,0,0,0-.18.71c-.09.33-.22.77-.38,1.25l.08,0s2.61,2.54.15,6.3c0,0-.57.32-.72-.43a3.45,3.45,0,0,0-1.32-1.58c-.14.2-.29.41-.47.64-.86.86-2.56,1.81-5.72,1.36l-4.1-1a21.23,21.23,0,0,0-5.91-1c-1.84.08-3.35.91-5.06,1.46-1.25.39-2.58.69-3.86,1.06-3.81,1.1-7.85,2-11.54,3.08l-1.37.29c-2.32,4.78-8.8,12.32-10.11,13.81l-2,.8c-2.93,1.22-8.15,3.62-9.22,5.81a10.17,10.17,0,0,0-1.12,2.63.67.67,0,0,0,.14.19l5.24.47c.45,0,.87.07,1.23.12l1.2.12s7.77,3.16,9.78,9.28a20.58,20.58,0,0,1,.08,10.39,4.05,4.05,0,0,1-1.88,2.72,1.82,1.82,0,0,1-.37.18c-.87.45-3.22,1.68-6,3.33-.69.44-1.39.88-2.11,1.3a48.11,48.11,0,0,0-7.94,6.07,6.85,6.85,0,0,0-1.28,1.54c1.17.14,6,.58,9.06.85l1.56.18a5.51,5.51,0,0,0,.57,0c.24,0,.39,0,.39,0a4.18,4.18,0,0,0,3.64-1.94,15.68,15.68,0,0,1,8.91-4.38v0a10.36,10.36,0,0,1,1.66-.1,10.5,10.5,0,0,1,1.7.1l-.07,0a11.23,11.23,0,0,1,7.09,3.67,6,6,0,0,1,1.67,4.83c2.22,1,2.52,6.57.77,8.36-.77-1.26-1.66-2.94-3.19-2.94-.47,0-.74.42-1.21.47s-1-.36-1.65-.23c.56,2.82-1.77,7.18-3.41,7.3-1.26.1-1.88-1.32-2.76-2.12l-3.25.69a1.46,1.46,0,0,1-.45.1l-.11,0-.22,0-.15,0-3.87-.79c-3.27-.19-17.2-.68-27.5,3.91a4.88,4.88,0,0,0-1.1.65s-.44,0-.44-.34c0,0-1.14-2.78.47-4.84-2.46-1.18-8-3.51-10.44-1.63,0,0-.33-.19-.38-.87a4.75,4.75,0,0,1,1.63-4.47s-.77-5.53-2.71-7.39c0,0,0,0,0-.08,1.81-.55,4.71.33,5.44.57a.43.43,0,0,0,.18.06,11.32,11.32,0,0,1,.24-1.4c4.59-7.19,9.23-8.4,9.23-8.4a8.67,8.67,0,0,0,2.47-1.43,2.86,2.86,0,0,0,.73-2.18c0-.13-.2-.86-.41-.85-1.52.05-6.39.48-14.07,3.54-1.72-.76-3-2.05-4.77-2.7a61.07,61.07,0,0,0-6,11.21c-.38.36-.75.73-1.15,1.06-4.58,4.28-11.73,11.25-14.12,15.14a10.31,10.31,0,0,1-3.38,1.59l0,0-.31,0c-1.88.22-7.89,1.4-9.58,7.77,0,0,.83,3.37,7.46,2.64l0,0c1.06,0,3.22.27,4.28,1.83a24,24,0,0,1,5.47,11.22,7.25,7.25,0,0,1-1.57,3.44,10.33,10.33,0,0,1-1.21,6s-1.44.29-1.44-.86a24.72,24.72,0,0,0-.43-3,9,9,0,0,1-2.45.49,11,11,0,0,1-2.19,2.53,6,6,0,0,1,0,3.89s-1.28.69-1.58-.16a13.57,13.57,0,0,0-1.26-2.21,5.45,5.45,0,0,1-2.55.05l-1-.13a8.08,8.08,0,0,0-2.45-.36,5.79,5.79,0,0,1,0,3.68s-1.28.68-1.58-.17a10.41,10.41,0,0,0-2.25-3.29c-1.33,0-2.59-.05-3.82-.15l-.11-.16c-4.17-3.59-4.75-11.79-4.75-11.79a7.37,7.37,0,0,0-1.07-3.74c-.31-2.77,0-10.62,0-12.84-.49.1-2,.39-3.23.56a2.19,2.19,0,0,1-1,.11l0-.07a2.44,2.44,0,0,1,0-1.2c.1-1.44.66-4.18,2.89-8.38a.17.17,0,0,1,0-.07,3.55,3.55,0,0,0-3.15,0s-1.37.28-.51-1.44l0,0a1.21,1.21,0,0,1,.26-.46,13.69,13.69,0,0,1,2.88-3.59.27.27,0,0,1,.07-.08s0-.07-.05-.11l-1-1a3.38,3.38,0,0,1-1-.95c-1.86-1.67-.14-1.67-.14-1.67.66.16,1.29.28,1.9.37a18,18,0,0,0,6.17-.07c2.93-.53,5.4-1.43,6.85-4.23a9,9,0,0,0,1-3.28,13.55,13.55,0,0,0-.16-1.93c2.39-1.11,4.7-2.36,5.68-4.71.51-4.64-2.4-11.82-3.39-14.1-11.76,1.57-21.61-7.5-22.23-19a23.2,23.2,0,0,1,1-8.49c1.45-4.1,4.82-7,6.93-10.74a11.93,11.93,0,0,0,1-2.17c1.37-4.1,1.76-8.49.08-12.56-1.06-2.58-4.67-6.06-7.84-4.08l-.15.1c.65,2.94,1.8,10.92-4,13.71a23.25,23.25,0,0,1-8.63,1.73,11,11,0,0,0-4.28,1.22h0a4,4,0,0,0-.48.34l-.14.09a.1.1,0,0,1,0,.05A2.77,2.77,0,0,0,69,147.94a3,3,0,0,0,3,1.51,13.85,13.85,0,0,0,3-1.08,2.14,2.14,0,0,1,1.8.58c-.59.7-5.11,5.67-11,3.66a6.2,6.2,0,0,1-3.34-5.85Zm118.4-61.18a7.28,7.28,0,0,0,6.06.65c2.47-.74,3.58-2.85,3.62-5.35a3.88,3.88,0,0,0-.54-2.2l-1.45,2.74c-1.85,2.35-5.07,3.49-8.89,3.27a1.68,1.68,0,0,0,1.2.89Zm21.92,17.48c0,.25.06.49.1.73.5,7.45,3.45,7.47,3.45,7.47,4.55-1.79,5.5-11.4,5.7-15.17a2.12,2.12,0,0,1,1.35-1.51c2.64-.47,2.75-3.45,2.23-5.59a7.43,7.43,0,0,0-.92-2.41,4.14,4.14,0,0,0-3.47-1.79c-1.64.22-1.78,2.69-1.58,3.91l-.1,2.42a7.76,7.76,0,0,0-.48,4.8,6,6,0,0,1-.86-4,5.84,5.84,0,0,0,0-3.05c-.19-2.59-.88-5.85,2.25-7a4.09,4.09,0,0,1,3.92.67,3.75,3.75,0,0,0,1.65-2.27,3.44,3.44,0,0,0-.39-1.6l-.47-.74a7.28,7.28,0,0,0-1.88-1.68c-3.74-1.8-6.78,4.21-6.78,4.21a8.68,8.68,0,0,1,1.7-4.1,4.26,4.26,0,0,0-3.62.8,5.36,5.36,0,0,0-1.92,3,15,15,0,0,0,.31,4.68,22.1,22.1,0,0,1,.32,2.56c0,1.34.08,2.68.09,4,0,3.87-1.2,7.8-.62,11.66Zm-62.94-1.65c1.8.88,3.74.5,5.62.9a6.79,6.79,0,0,1,2.16.88c.11.06.85.43.86.59a5,5,0,0,0-1.15-3c-1.65-2-4.46-2.72-6.91-3.12-.44-.07-.92-.08-1.36-.18l-1.36-.28a4.37,4.37,0,0,0,2.14,4.17Zm34.27,22c-2.16-2.3-2.94-6.21-5.81-7.89l-1.25-.64a32.38,32.38,0,0,1-8.78-4.83,15.36,15.36,0,0,0-9.2-2,7.4,7.4,0,0,0,.43,1.83l.11.22c3.07,6.38,11.56,7.82,11.56,7.82a11.31,11.31,0,0,1,5.55,2.35c4.56,4.93,8.73,4.89,8.73,4.89l-1.34-1.78Zm3.31-1.39,1.39.69a21.74,21.74,0,0,0,9.31,1.85l-9-4.84c-3.35-1.73-4-1.34-4-1.34a10.86,10.86,0,0,0,2.31,3.64Zm-18.56-2.28a16,16,0,0,1-9.06-5,7.34,7.34,0,0,0-3.52-1.87c.93,3.57,3.86,10.58,12.63,11.08a5.32,5.32,0,0,0,4.54-2.11,14.83,14.83,0,0,0-4.59-2.09Zm-4.27,23.57c4.42-3.24,4.16-8,3.61-10.56-1.38-5.37-6.3-7.88-7.72-8.5a17.14,17.14,0,0,0,1.23,4.53c1,1.86,1.88,3.5,1.88,3.5,2.48,4.49,1.42,9.49,1,11ZM163.31,163s-1.55-6.62-7.11-10.25l-2.61-.82c.41.54.88,1,1.32,1.57,3.69,4.38,6.24,11.26,6.24,11.26a1.63,1.63,0,0,0,.58.8c1.55.23,1.75-1.32,1.76-1.95a3.42,3.42,0,0,0-.18-.61Zm1.65-2.45a4.31,4.31,0,0,0,.54.79c.9.4,1.46-1,1.46-1a7.45,7.45,0,0,0-2.7-5L160,153.94l.43.48.47.45a34.54,34.54,0,0,1,4,5.65Zm-10-.79a11.42,11.42,0,0,0-4.3-4.15c-.56-.32-1.95-.87-2,.22a2.42,2.42,0,0,0,.43,1.34,15.51,15.51,0,0,1,3.6,7.41c1.22,2.73,3.3,1.73,3.3,1.73,1.23-1.8-1-6.55-1-6.55Zm-6.12-25a8.05,8.05,0,0,1,.49,7c5-3.74,2.36-9.39,2-10.1a8,8,0,0,0-6-3.81l-2,.42a26.74,26.74,0,0,0,1.26,2.7A18.4,18.4,0,0,0,147,133a9.29,9.29,0,0,1,1.82,1.68Zm-2.63-11.6a18.45,18.45,0,0,0-1.73-6.19l-2.35-5.27-.86-1.34s-1.3,3,1,8c0,0,1.53,3.69,4,4.75ZM134.79,89.76a15.83,15.83,0,0,0,.86,2.09,7.72,7.72,0,0,0,3.55,3.67,7.3,7.3,0,0,0,4.71,0,8.75,8.75,0,0,0,1-.35c2.59-1.32,2.76-3.08,2.64-4a1.09,1.09,0,0,0-.16-.64c-2.55,1.37-6.21,3-8.65.49a9.36,9.36,0,0,1-1.66-2.25s-.28-.61-.59-1.53a16.88,16.88,0,0,1-.07-10.62c-.14,0-.24.17-.34.36a5.71,5.71,0,0,0-.51.65c-.17.26-.36.58-.54.92,0,0-.09.17-.21.47a10.28,10.28,0,0,0-.66,2.22,16.7,16.7,0,0,0,.61,8.5Zm-1,41a9,9,0,0,0,.46-.93,6,6,0,0,0-.16-3.57,43.38,43.38,0,0,1-2.31-3.88c-.72-.57-1.52-.83-2-.34.13.93,1,5.84,4,8.72Zm-4.88-12.06c.1,1.07,1.35,1.09,1.35,1.09,1.08-.29.86-1.58.86-1.58-.36-2-1.15-9.86-1.15-9.86-.14-2.66-.79-.5-.79-.5-1.15,4.6-.27,10.85-.27,10.85Zm-7.41-21.41c.32,1.66.71,3.31,1,5,.37,2.14,1.08,7.6-.32,11.83,0,.71.29.43.29.43a13.49,13.49,0,0,0,1.81-4.13c0-.2.09-.39.14-.57l.06-.27a13.69,13.69,0,0,0,.33-2.15,36,36,0,0,0,.15-4.81V95.8A31.05,31.05,0,0,1,130,81.66l-.42-8.27c0,.18-.64.77-.76.92-.33.4-.65.8-1,1.21a30.39,30.39,0,0,0-2.4,3.77c-2,3.62-4,7.67-4.45,11.8a20.72,20.72,0,0,0,.44,6.23Zm-3.55-16.19A15.54,15.54,0,0,0,116,86.52a52.26,52.26,0,0,0,.56,9,.61.61,0,0,0,.18-.09,42.68,42.68,0,0,1,9.17-20.16l1-1.42c1.28-2.56,1.34-4.16,1.14-5.08a1.43,1.43,0,0,0-.07-.28l0-.12a1.7,1.7,0,0,0-.36-.62s-12,7.15-13.8,13.67a15.94,15.94,0,0,0-1,5.16,18.69,18.69,0,0,1,4.3-6.63,11.94,11.94,0,0,1,3-2.42,27.16,27.16,0,0,1-2.1,3.61Zm-8.19-5.82a18.74,18.74,0,0,0,6-1.52c1.81-.77,8.79-6.55,10.17-7.7.5-1.13,1.18-2.94,1.51-3.82-1.31,0-6.32.46-11.82,7.13,0,0-2.8,4.32-5.83,5.91ZM121.6,52.86s3.51.41,4.2,1.51a16.12,16.12,0,0,0-10.64,7.09,15.19,15.19,0,0,0-1.26,2.84L113.47,66s.37-.42,1-1.06c5-5.56,12.37-7.32,14-7.64a11.81,11.81,0,0,0,2.93-3.76,9.13,9.13,0,0,0-9.84-.7Zm10.47-3.5a4.22,4.22,0,0,0-2-.11c.1,1.1,1,1.3,1.76,1.88a4.36,4.36,0,0,1,.93,1,17.76,17.76,0,0,1,1.38,1.37c1.85-2.15-1.12-2.93-2.09-4.13Zm12.14,2.21a1,1,0,0,0-.88.33.1.1,0,0,1,0,0s-.94,1.15-.87,1.87c0,0,1.44,3.38.65,6a20.53,20.53,0,0,1-2,3.2,10.9,10.9,0,0,1-3.31-5.15,7.85,7.85,0,0,1,.14-1.42,27.46,27.46,0,0,1,2-6.14,13.21,13.21,0,0,1,1-2.18,9.23,9.23,0,0,0,1.29-2.3H142c-3.6,1.76-5.47,5.37-6.83,9.54.08,1.12,0,2.2.07,3.23l.33,2.29a3.4,3.4,0,0,1-1.47-1.32,5.38,5.38,0,0,0-1.79,3.22c.75.3,1.7-.38,2.78-.3l1,1.31a6.94,6.94,0,0,1,0,.79l-.34,2.78,2.85-2.33c.32.07.39.41.72.46-.17,1.4-.93,2.16-1,3.68,4.08-1.35,7.57-7.59,7.57-7.59,1.48-3.54-1-8.54-1.72-9.9Zm26.16,25.35a1.58,1.58,0,0,0,1.11-.82c.1-.85-.93-1-1.55-.71-.06.74.45.85.44,1.53Zm-4-.59c.49-.37,1.3-.41,1.21-1.41-.59,0-.9-.37-1.65-.24.06.66.42,1,.44,1.65Zm-2.86-.82c.47-.16.67-.62,1.1-.83,0-.63-1.22-.74-1.54-.35-.05.61.08,1,.44,1.18Zm4,14.55a1,1,0,0,0,.21.2s.06.07.07.06a.91.91,0,0,0,.66.15c1.12-.21.74-2.66.54-3.89,0,0,.52-1.92-.61-2.45-.32.4-.77.6-1.14.33-.09-1.32-.44-1.86-.91-1.92l-.71.38-.57-.07v0c-.33-.06-.78-.13-1.28-.19l.12.08-1.78-.14a31.52,31.52,0,0,0-5.67,1.15,2.45,2.45,0,0,1-2.32-1.26c.29-1.35,1.76-1.89,2.43-3.18,1.1-2.13,1.67-4.76,2.53-7.19a11.75,11.75,0,0,1,3.74-1.76c1.08.9,1.45,2.46,3,2.94,1.69.53,3.4-.84,5.18-.59.62.09,1.19.92,2,1.06a5.94,5.94,0,0,0,4-1.06c.66-4.05-1.43-6.16-4.3-6.83-.52-1.45-1.76-2.48-1-4.36.81-1.13,3.28-.49,4-1.76a4.57,4.57,0,0,0-.52-.86c-1-1-2.91-2.32-6.95-2.93a13,13,0,0,1-3.21-.76,8.08,8.08,0,0,1-3.81-2.76,5.22,5.22,0,0,1-.7-1.11c-8.87-2.21-10.07-5.82-10.2-6.32l-.25-.11a7.3,7.3,0,0,0-.11,3.77c-1.36-.57-2-2.43-3.28-3.26a1.52,1.52,0,0,0-.69-.51,23.64,23.64,0,0,0,1.25,7.77s2.78,5.46,1.43,8.15l-1.67,2.42a1,1,0,0,0-.34.63c-.08.76.55,1.2.77,2,.91,3.33-1.24,5.56-1.87,8.71a16.68,16.68,0,0,0,2.64,12.49c.39.53,1.6,2,2.32,2,.1,0,.18,0,.26,0l.11,0,.06,0c10.32-3.83,15.49,0,16.68,1.08Zm.27,10.53c-1.42.15-2.43,1.24-3.61,1.91a7.66,7.66,0,0,1-3.14.92c-3,.25-5.49-1.39-7.94-2.84-.34-.2-.69-.4-1-.57a8.08,8.08,0,0,1-1-.39c.82,5.06,7.11,6.25,7.11,6.25,8.25,1.32,9.45-4.13,9.62-5.28Zm15.29,1.29a5.28,5.28,0,0,0-1.64-1.87s-.52,2.16-.58,2.37a8.43,8.43,0,0,1-4.3,4.93,10.5,10.5,0,0,1-3.09,1.07,20.68,20.68,0,0,1-5.15.34,20.16,20.16,0,0,1-2.58-.29,25,25,0,0,0-3.09-.54,12.06,12.06,0,0,0-1.59,0,10.09,10.09,0,0,1-1.3.29,34.86,34.86,0,0,0,6,3.32c4.74,1.92,11.14,2.43,15-1.51a11,11,0,0,0,2.54-3.8,5.19,5.19,0,0,0-.23-4.34Zm13,14.22a5.63,5.63,0,0,1-.5.53l-.23.25a.31.31,0,0,0,0-.08c-1.06.87-3.06,1.85-6.43,1.15a9.49,9.49,0,0,1-2.64-1.21c-.76-.41-1.24-.73-1.24-.73-2.73-1-3.81,0-3.81,0l10.76,7.31c4.92-1.57,4.2-6.53,4.07-7.22Zm-14,35.58c9.25-1.12,27.23-7.8,30.32-9l.23-.08c.64.19,1.11.74,1.54.83,1.14.25,2.53-.18,3.75,0a15.36,15.36,0,0,1,3.61,1.1c1.49.61,2.86,1.45,4.53,1.32,1.31-.09,2.63-.42,3.08-1.83.42-3.87-5-3.65-7.92-4.36A9.81,9.81,0,0,1,225,139a11.42,11.42,0,0,1,3.44,1,4.47,4.47,0,0,0,1.8.5c1.37,0,1.65-1.65,1.65-1.65-.28-4-5.56-4.37-5.56-4.37a11,11,0,0,1,3.63-.35c1.14.17,2.06,1,2.81.66,0-.15-.05-.31-.09-.5-.62-3.06-4.53-9.17-8.32-6.18-.3.24-1.44,1-1.44,1.43,0,1.16,1.93,1.46,2.62,2.31a24.43,24.43,0,0,1-2.66,3.21,38.45,38.45,0,0,1-9.68.91,30,30,0,0,1-3.1-2.81s1.07-1.78-20.63-1.65a8.63,8.63,0,0,1-4-1.37s-3.56-3-6.15-3.35c-.43.26-.65,1-1.05,1.1a15.31,15.31,0,0,1-3.52-.12c-2.21-.19-5.25-.84-7.16-1.18a6.46,6.46,0,0,1-.93-.26c-.63-.24-1.09-.32-1.19-.07,0,0,.47,1.26,1,2.35,0,0,1,6.29,3,9.25a20.07,20.07,0,0,0,5.38,1.06l3.66-1.92.44,1.92c1.35-.14,3.81-2,3.81-2a15.69,15.69,0,0,1,.84,2.71c.24.67.67.1.67.1a6.47,6.47,0,0,1,4.41-2.35h.13a8.07,8.07,0,0,1-.76,2.36v0a17.08,17.08,0,0,1,4.56-1.68s.42-.08.19.77l-.27.81s0,0,0,0l.21,0c1-.49,3.48-1.7,4.05-1.88a4.15,4.15,0,0,1,.58,1.74,9.6,9.6,0,0,1,2.4-.92,4.32,4.32,0,0,1,.08,1.68c2.18,0,4.26-.72,6.22-.58,0,0-1.55.63-4.26,1.46-1.38.31-2.7.77-4.1,1.13-2.2.56-4.59,1-6.83,1.51-1.62.3-3.32.57-5.12.8,0,0-11.87-.36-16.45-1.36-.55-.38-.77-1-1.43-1.42-1.57-1.14-3.53-1.24-5.5-1.42a9.35,9.35,0,0,0-.9,3.58,28,28,0,0,0,7.05,5.11c3.52,1.15,13.59,2.59,13.59,2.59Zm16.65,63.64c.13.44.18.72.18.72,2.2-.57,2.39-1.92,2.39-1.92s0-.17,0-.26c.59-2.82-2.7-4.67-2.7-4.67a6.86,6.86,0,0,0-6.53-.05,3.47,3.47,0,0,0-.7.4,1.64,1.64,0,0,0-.06.42c5.38.19,6.95,3.58,7.4,5.36Zm-35.81,4.16,0,0a1.7,1.7,0,0,0-.31.28h0a1.94,1.94,0,0,0-.2,2.23l20.6-1a16.09,16.09,0,0,1,2.4-1.32,14.3,14.3,0,0,1,2.56,1.53,4.36,4.36,0,0,0,4.51-.33,1.35,1.35,0,0,0,.28,0c.67.15,1.92,1.58,1.92,1.58a.56.56,0,0,0,.72.15,5.28,5.28,0,0,0-.19-3.45s1.72-1.63-.58-4.89a4.74,4.74,0,0,0-5.94-1.63,17.15,17.15,0,0,0-5.09,3,3.75,3.75,0,0,1-2.58.67l-10.74.57s-5.07,1.16-7.09,2.44a1.28,1.28,0,0,0-.23.14Zm-44.34,32.3s4.38.15,3.74-3.66a6,6,0,0,0-1.22-2,11.21,11.21,0,0,0-3.29-3.07c-1-.58-4.08-1.36-4.7.2,0,0,4.82,6.54,5.47,8.48Zm-9.94-1.28c.31,1.29.63,2.58,1,3.87a7.55,7.55,0,0,0,2.73,1.66c5-.22,4.67-3.6,4.67-3.6-3.88-7.91-6.54-7.55-6.54-7.55a3.32,3.32,0,0,0-1.62.57c-1.77,1.15-.59,3.39-.19,5.05ZM102,256.6c2.31,1.15,4.61-.57,4.61-.57,1.72-2-1.44-8.63-1.44-8.63-4.89.28-3.17,9.2-3.17,9.2Zm8.87-47.77c-2.13,3.33-5.54,5.3-8.25,8a17.65,17.65,0,0,1-.77,3.31c0,.45.31.58.47.88a8.57,8.57,0,0,0,1.51-1.6l8.1-6.31.81-1.25a12.34,12.34,0,0,1,1-3l3.17-2.83a1.54,1.54,0,0,1,.19-.17,21,21,0,0,1,3.18-.68c1.23,2.64,1,6.9,1,7.11a1.9,1.9,0,0,1-.48,1.19s0,.05,0,.07l-.09.08A20.42,20.42,0,0,1,117,217.1a27.24,27.24,0,0,0-10.67,6.69l-.46.51a21.06,21.06,0,0,0-2.33,3.15,18.72,18.72,0,0,0-2.19,5.88c-.46,3.5,0,6.81,1.21,8.72,1,1.15,2.5.66,4.18.47-4.5-7.66,1.24-15,1.24-15a18.67,18.67,0,0,1,6.71-5.08c.23-.1.46-.2.7-.28a10.3,10.3,0,0,1,3.69-.65c1.63-2.71,14.51-13.93,14.51-13.93,1.29-3,2.69-6,4.11-8.91,1.74-3.61,3.64-7.14,5.45-10.71a23.71,23.71,0,0,1,1.61-2.81,26.94,26.94,0,0,1,7.56-6.66,88.49,88.49,0,0,1,12.56-6.62q3.1-1.35,6.26-2.57a20.77,20.77,0,0,1,3.15-1.4c6.76-3.67,6.3-7.39,6.3-7.39a1,1,0,0,0-.76.42h.07c-.4.05-1.24,1.36-1.6,1.66a15.76,15.76,0,0,1-1.93,1.33,23.09,23.09,0,0,1-3.3,1.56h0a120.92,120.92,0,0,0-18.93,8.15A32.26,32.26,0,0,0,150.1,176a58.83,58.83,0,0,0-5.37,3.75,36.85,36.85,0,0,0-3.52-3.07,29.13,29.13,0,0,1-2.43-7.18c4.61,5.95,6.26,5.55,6.26,5.55a8.32,8.32,0,0,0,4.42-2.61c.86-4.4,0-8.9-2.2-11.07a13.1,13.1,0,0,1-2.86,1.89c-2.42,1.29-4.89,2.19-7.33,3.4-4.24,2.08-10,3.19-13.07,7a16.58,16.58,0,0,0-.4,3,36.61,36.61,0,0,0,1.82,11.14c.75,2.06,2,3.88,2.47,6.06-4.23-2.89-6.08-8.34-7.92-13.78a4.55,4.55,0,0,0-.62.69c-.42.58-1.2,1.7-.84,2.46,0,0,4.16,8.77,4.32,12.89-.68,1.13-2,1.71-3.3,2.56-1.22,5.19-4.91,7.7-8.7,10.13ZM76.29,135.19c0,.09,0,.16,0,.16l-.31.38a17.77,17.77,0,0,1-2.14,2.73h.06l2.27-.51h0l.86-.23-.7,2.93c7.1-.38,7.53-8,7.53-8a3.31,3.31,0,0,0,0-.8l0-.06h0c-.16.22-.41.54-.72.9a9.07,9.07,0,0,1-3.86,4,25.4,25.4,0,0,0,2-5.92l0-.12-2.48,1.15.56-3.14a11.83,11.83,0,0,0-4,1.49,9.1,9.1,0,0,0-3.47,4.19l5.41-1.82a8.49,8.49,0,0,1-1,2.57Zm86.82-71.46a2.75,2.75,0,0,1,1.54.35c-.61,0-.84.37-1.43.36,0-.24-.3-.15-.22-.47.09,0,.13-.1.11-.24Zm4.95,5.89a.62.62,0,0,1-.55-.59,2.25,2.25,0,0,1,1.43-.71,2.12,2.12,0,0,1-.88,1.3Zm-14.17,15.8c-4.32,1.33-2.16-5.16-2.16-5.16-.67,4.33,2.16,5.16,2.16,5.16Zm10.1-18c0-.22-.12-.26-.11-.47a1.45,1.45,0,0,1,1.21-.35c-.25.4-.41.89-1.1.82ZM167.73,62c.07-.83,1.35-1.36,1.65-.35-.25.65-1.1.48-1.65.35ZM155.85,63.5a7.53,7.53,0,0,0,3.19.94,4.47,4.47,0,0,1-3.75.94,1.73,1.73,0,0,1,.56-1.88Zm-35.77,14H120l.06-.12v.11Zm30-14.37h.09a5.15,5.15,0,0,0,3.71.76.47.47,0,0,1,.06.19c-.69,1.66-4.1,1.36-3.86-.94Zm.67-1.77a15.84,15.84,0,0,0,2.85-.59c0-1.69,1.74-2.12,1.65-3.53-.4.08-.65.32-1.2.24s-.59-.79-.77-1.3c-.37,0-.78.05-.78-.35-.36-1.09,1.65-1.74,2-1.77,2.62-.19,4.18,3.52,5.61,4,1.72.58,2.29-.36,2.2-2.12,1,0,1,1.17,1.21,2A10.65,10.65,0,0,0,165.42,59c.31.44-.2.67,0,.94.68.34,2.26-.29,2.31.71a3.74,3.74,0,0,1-1.87.82c-.69-1-2.53-.73-3.57-1.34l.47-1a17.66,17.66,0,0,1-2.07,1.14c-.68,0-1.15-1-1.87-.7,0,1,.69,1.13,1.32,1.64-.4,1.55-2.73,1.94-4,1,.07-.47.46-1.24-.11-1.42a7.76,7.76,0,0,1-2.39,1.93,6.12,6.12,0,0,1-2.89-1.34Z"/><rect class="cls-3" x="300" width="975" height="300"/><path class="cls-2" d="M424.42,126.49a10.92,10.92,0,0,0,3.36,2.36,13.72,13.72,0,0,0,5,1,13.27,13.27,0,0,1-.4,3.44q-8,0-12.72.48A142.75,142.75,0,0,0,410,120.3a109.45,109.45,0,0,0-11.75-13v15.91q0,4,1.15,5.4c.78.93,2.23,1.45,4.36,1.56a10.86,10.86,0,0,1,.4,3.44q-4.8-.24-9.67-.24-5.6,0-9.68.24a10.86,10.86,0,0,1,.4-3.44c2.13-.11,3.59-.63,4.36-1.56s1.16-2.73,1.16-5.4V89.43q0-4-1.16-5.39c-.77-.94-2.23-1.46-4.36-1.56a10.9,10.9,0,0,1-.4-3.44q4.39.24,9.68.24,4.88,0,9.67-.24a10.9,10.9,0,0,1-.4,3.44c-2.13.1-3.58.62-4.36,1.56s-1.15,2.73-1.15,5.39v15.51l15.11-15.83q3-3,3-4.79c0-1.18-.88-1.79-2.64-1.84a11.83,11.83,0,0,1-.4-3.44q2.64.24,8.23.24,5,0,8.24-.24a9.28,9.28,0,0,1-.48,3.44,11.25,11.25,0,0,0-5.28,1.6,31.89,31.89,0,0,0-6.08,5.35l-13,13.84q5.76,5.51,15.83,18.71A52.83,52.83,0,0,0,424.42,126.49Z"/><path class="cls-2" d="M450.13,84c-.78-.94-2.23-1.46-4.36-1.56a10.9,10.9,0,0,1-.4-3.44c2.93.16,6.16.24,9.67.24q4.88,0,9.68-.24a10.9,10.9,0,0,1-.4,3.44c-2.13.1-3.59.62-4.36,1.56s-1.16,2.73-1.16,5.39v33.74q0,4,1.16,5.4c.77.93,2.23,1.45,4.36,1.56a10.86,10.86,0,0,1,.4,3.44q-4.8-.24-9.68-.24-5.6,0-9.67.24a10.86,10.86,0,0,1,.4-3.44c2.13-.11,3.58-.63,4.36-1.56s1.16-2.73,1.16-5.4V89.43Q451.29,85.44,450.13,84Z"/><path class="cls-2" d="M531.64,79a12.85,12.85,0,0,1-.4,3.44,3.73,3.73,0,0,0-2.84,1A6.82,6.82,0,0,0,527,87a41.25,41.25,0,0,0-.44,6.84v39.5a10,10,0,0,1-3.43.48l-33-43.1v27.67a39.84,39.84,0,0,0,.48,7.11,6.25,6.25,0,0,0,1.68,3.56,4.85,4.85,0,0,0,3.36,1.08,11.33,11.33,0,0,1,.4,3.44q-3.6-.24-7.92-.24c-3.3,0-6,.08-8,.24a11.33,11.33,0,0,1,.4-3.44,4.85,4.85,0,0,0,3.36-1.08,6.25,6.25,0,0,0,1.68-3.56,39.84,39.84,0,0,0,.48-7.11v-33l-.32-.39a6.77,6.77,0,0,0-2.12-1.84,9,9,0,0,0-3.08-.64,12.85,12.85,0,0,1-.4-3.44q2.4.24,5.92.24a49.69,49.69,0,0,0,5.35-.24l31.11,41.26V93.83A37.43,37.43,0,0,0,522,87a5.93,5.93,0,0,0-1.68-3.43,4.93,4.93,0,0,0-3.36-1,22,22,0,0,1-.4-3.44q3.44.24,7.52.24C526.92,79.28,529.46,79.2,531.64,79Z"/><path class="cls-2" d="M556.63,130.53a23.83,23.83,0,0,1-9.24-10,32.79,32.79,0,0,1-3.28-15A26.65,26.65,0,0,1,548,90.91a25.17,25.17,0,0,1,10.28-9.23,30.31,30.31,0,0,1,13.55-3.12,53,53,0,0,1,10.55,1,36.72,36.72,0,0,1,8.64,2.76,68.14,68.14,0,0,0-.88,12.39,12,12,0,0,1-4.24.72q-.24-7.75-3.72-10.67t-9.71-2.92a19.2,19.2,0,0,0-11,3,18.48,18.48,0,0,0-6.67,8,26.72,26.72,0,0,0-2.2,10.91,38.39,38.39,0,0,0,2.2,13.4,21.06,21.06,0,0,0,6.55,9.43A16.59,16.59,0,0,0,572,130.13a29.39,29.39,0,0,0,4.4-.28,17.29,17.29,0,0,0,3.67-1,3.85,3.85,0,0,0,2.12-1.88,10.18,10.18,0,0,0,.6-4.12v-4a22.26,22.26,0,0,0-.44-5.4,2.79,2.79,0,0,0-1.8-2,16.59,16.59,0,0,0-4.63-.56,10.51,10.51,0,0,1-.48-3.68q3,.24,9.75.24,6,0,9.36-.16a10.62,10.62,0,0,1-.48,3.6,4.7,4.7,0,0,0-2.48.6,3.24,3.24,0,0,0-1,2.12,34.18,34.18,0,0,0-.28,5.28v3.59a21.89,21.89,0,0,0,.2,3.16,6.8,6.8,0,0,0,.84,2.44,29.62,29.62,0,0,1-9.08,4.36,40.74,40.74,0,0,1-11.87,1.64A26.56,26.56,0,0,1,556.63,130.53Z"/><path class="cls-2" d="M619.27,89.35a27.47,27.47,0,0,1-4.48,6.8,6,6,0,0,1-1.79-.28,3.31,3.31,0,0,1-1.4-.76,20.36,20.36,0,0,0,2.56-4.2,10.13,10.13,0,0,0,.55-3.56q0-3.51-3.75-4a22.53,22.53,0,0,1,.16-2.44,9.71,9.71,0,0,1,.48-2.36,19.29,19.29,0,0,0,6.39-2.4c1.82.69,2.72,2.61,2.72,5.76A18.27,18.27,0,0,1,619.27,89.35Z"/><path class="cls-2" d="M645.26,132.81a38.78,38.78,0,0,1-7.92-3.88,73.61,73.61,0,0,0,.72-11.35,17.27,17.27,0,0,1,4.32-.48q.32,6.39,3.24,9.75t9.07,3.36q5.2,0,7.72-2.28a7.74,7.74,0,0,0,2.52-6,8.67,8.67,0,0,0-1.6-5.28,13.48,13.48,0,0,0-3.92-3.56,69.73,69.73,0,0,0-6.48-3.32,75.38,75.38,0,0,1-7.67-4.16,16.56,16.56,0,0,1-4.92-4.91,13.69,13.69,0,0,1-2-7.72q0-6.72,4.32-10.55t11.75-3.84a27.85,27.85,0,0,1,7.52,1,19.89,19.89,0,0,1,5.84,2.52,83.77,83.77,0,0,0,.48,10.55,12,12,0,0,1-4.48.72q-1.12-6.55-3.36-8.91a8,8,0,0,0-6.08-2.36,9.77,9.77,0,0,0-6.63,2.08,7.29,7.29,0,0,0-2.4,5.83,8.77,8.77,0,0,0,1.64,5.36,13.78,13.78,0,0,0,4,3.68q2.36,1.44,6.51,3.52a67.62,67.62,0,0,1,7.56,4.07,17,17,0,0,1,4.83,4.8,12.65,12.65,0,0,1,2,7.28,15.33,15.33,0,0,1-1.95,7.63,14.19,14.19,0,0,1-6.08,5.6,22.19,22.19,0,0,1-10.2,2.12A25.83,25.83,0,0,1,645.26,132.81Z"/><path class="cls-2" d="M750.24,117.58A14.72,14.72,0,0,1,745.48,129q-4.76,4.36-14.43,4.36-15.75,0-21.75.24a11.16,11.16,0,0,1,.4-3.44,8.47,8.47,0,0,0,3.4-.8,3.72,3.72,0,0,0,1.68-2.28,16.5,16.5,0,0,0,.52-4.76V89.43q0-4-1.16-5.39c-.77-.94-2.23-1.46-4.36-1.56a11.2,11.2,0,0,1-.4-3.44c2.13.16,4.91.24,8.32.24l5.75-.08c1.28,0,3.18-.08,5.68-.08q7.85,0,12.44,2.6t4.59,9.07a12.85,12.85,0,0,1-3.16,8.8,13.43,13.43,0,0,1-8.43,4.39Q750.24,104.86,750.24,117.58ZM734.45,85.11a14.27,14.27,0,0,0-8.36-2.47,12.63,12.63,0,0,0-3.27.4v20.31h2.47q12.72,0,12.72-10.16Q738,87.6,734.45,85.11Zm4.4,41.86q2.83-2.91,2.84-8.27,0-11.92-17-11.92h-1.83v15.51a15.08,15.08,0,0,0,.59,4.92,3.5,3.5,0,0,0,2.12,2.12,14.79,14.79,0,0,0,4.72.56C734.09,129.89,737,128.92,738.85,127Z"/><path class="cls-2" d="M812.93,133.57q-4.8-.24-9.12-.24t-9,.24a7.94,7.94,0,0,1,.56-3.44,9.6,9.6,0,0,0,3.15-.72,1.65,1.65,0,0,0,.92-1.6,14,14,0,0,0-1.2-3.92l-3.51-8.15q-12.72,0-21.11.32l-2.16,5.52a16,16,0,0,0-1.28,5.27,2.75,2.75,0,0,0,1,2.36,6,6,0,0,0,3.16.92,9.17,9.17,0,0,1,.56,3.44q-2.73-.24-7.6-.24-2.09,0-6.64.24a8.94,8.94,0,0,1,.56-3.36,5.06,5.06,0,0,0,3.28-2.08,34.69,34.69,0,0,0,3.12-6.55l16.55-42.46a13.93,13.93,0,0,1,3.12-.32l19,43.65a30.31,30.31,0,0,0,3.16,5.92,4.75,4.75,0,0,0,3,1.76A11.92,11.92,0,0,1,812.93,133.57Zm-19.75-21.43L787.1,97.91q-2.4-5.52-3.52-8.72c-.59,1.82-1.6,4.69-3,8.64L775,112.14Z"/><path class="cls-2" d="M877.37,79a12.85,12.85,0,0,1-.4,3.44,3.73,3.73,0,0,0-2.84,1A6.82,6.82,0,0,0,872.69,87a41.25,41.25,0,0,0-.44,6.84v39.5a10,10,0,0,1-3.43.48l-33-43.1v27.67a39.84,39.84,0,0,0,.48,7.11,6.25,6.25,0,0,0,1.68,3.56,4.85,4.85,0,0,0,3.36,1.08,11.33,11.33,0,0,1,.4,3.44q-3.6-.24-7.92-.24c-3.3,0-6,.08-8,.24a11.33,11.33,0,0,1,.4-3.44,4.85,4.85,0,0,0,3.36-1.08,6.25,6.25,0,0,0,1.68-3.56,39.84,39.84,0,0,0,.48-7.11v-33L831.4,85a6.77,6.77,0,0,0-2.12-1.84,9,9,0,0,0-3.08-.64,12.85,12.85,0,0,1-.4-3.44q2.4.24,5.92.24a49.69,49.69,0,0,0,5.35-.24l31.11,41.26V93.83A37.43,37.43,0,0,0,867.7,87,5.93,5.93,0,0,0,866,83.52a4.93,4.93,0,0,0-3.36-1,22,22,0,0,1-.4-3.44q3.43.24,7.52.24Q874.09,79.28,877.37,79Z"/><path class="cls-2" d="M931.18,126.49a10.92,10.92,0,0,0,3.36,2.36,13.72,13.72,0,0,0,5,1,13.27,13.27,0,0,1-.4,3.44q-8,0-12.72.48a142.75,142.75,0,0,0-9.67-13.51,108.57,108.57,0,0,0-11.76-13v15.91q0,4,1.16,5.4c.78.93,2.23,1.45,4.36,1.56a10.86,10.86,0,0,1,.4,3.44q-4.8-.24-9.67-.24c-3.74,0-7,.08-9.68.24a10.86,10.86,0,0,1,.4-3.44c2.13-.11,3.59-.63,4.36-1.56s1.16-2.73,1.16-5.4V89.43q0-4-1.16-5.39c-.77-.94-2.23-1.46-4.36-1.56a10.9,10.9,0,0,1-.4-3.44q4.4.24,9.68.24,4.88,0,9.67-.24a10.9,10.9,0,0,1-.4,3.44c-2.13.1-3.58.62-4.36,1.56S905,86.77,905,89.43v15.51l15.12-15.83q3-3,3-4.79c0-1.18-.88-1.79-2.64-1.84A11.83,11.83,0,0,1,920,79q2.64.24,8.23.24,5,0,8.24-.24a9.28,9.28,0,0,1-.48,3.44,11.25,11.25,0,0,0-5.28,1.6,31.89,31.89,0,0,0-6.08,5.35l-13,13.84q5.76,5.51,15.83,18.71A52.83,52.83,0,0,0,931.18,126.49Z"/><path class="cls-2" d="M956.89,84c-.78-.94-2.23-1.46-4.36-1.56a10.9,10.9,0,0,1-.4-3.44c2.93.16,6.16.24,9.67.24q4.88,0,9.68-.24a11.2,11.2,0,0,1-.4,3.44c-2.13.1-3.59.62-4.36,1.56s-1.16,2.73-1.16,5.39v33.74q0,4,1.16,5.4c.77.93,2.23,1.45,4.36,1.56a11.16,11.16,0,0,1,.4,3.44q-4.8-.24-9.68-.24-5.59,0-9.67.24a10.86,10.86,0,0,1,.4-3.44c2.13-.11,3.58-.63,4.36-1.56s1.16-2.73,1.16-5.4V89.43Q958.05,85.44,956.89,84Z"/><path class="cls-2" d="M1038.4,79a12.85,12.85,0,0,1-.4,3.44,3.73,3.73,0,0,0-2.84,1,6.82,6.82,0,0,0-1.44,3.47,41.25,41.25,0,0,0-.44,6.84v39.5a10,10,0,0,1-3.43.48l-33-43.1v27.67a39.84,39.84,0,0,0,.48,7.11,6.25,6.25,0,0,0,1.68,3.56,4.85,4.85,0,0,0,3.36,1.08,11.33,11.33,0,0,1,.4,3.44q-3.6-.24-7.91-.24-5,0-8,.24a11.33,11.33,0,0,1,.4-3.44,4.85,4.85,0,0,0,3.36-1.08,6.25,6.25,0,0,0,1.68-3.56,39.84,39.84,0,0,0,.48-7.11v-33l-.32-.39a6.77,6.77,0,0,0-2.12-1.84,9,9,0,0,0-3.08-.64,12.85,12.85,0,0,1-.4-3.44q2.4.24,5.92.24A49.69,49.69,0,0,0,998.1,79l31.11,41.26V93.83a37.43,37.43,0,0,0-.48-6.88,5.93,5.93,0,0,0-1.68-3.43,4.93,4.93,0,0,0-3.36-1,22,22,0,0,1-.4-3.44q3.43.24,7.52.24C1033.68,79.28,1036.22,79.2,1038.4,79Z"/><path class="cls-2" d="M1063.39,130.53a23.83,23.83,0,0,1-9.24-10,32.79,32.79,0,0,1-3.28-15,26.65,26.65,0,0,1,3.92-14.67,25.17,25.17,0,0,1,10.28-9.23,30.31,30.31,0,0,1,13.55-3.12,53,53,0,0,1,10.55,1,36.72,36.72,0,0,1,8.64,2.76,68.14,68.14,0,0,0-.88,12.39,12,12,0,0,1-4.24.72q-.24-7.75-3.72-10.67t-9.71-2.92a19.14,19.14,0,0,0-11,3,18.44,18.44,0,0,0-6.68,8,26.72,26.72,0,0,0-2.2,10.91,38.39,38.39,0,0,0,2.2,13.4,21,21,0,0,0,6.56,9.43,16.55,16.55,0,0,0,10.67,3.48,29.39,29.39,0,0,0,4.4-.28,17.53,17.53,0,0,0,3.68-1A3.86,3.86,0,0,0,1089,127a10.18,10.18,0,0,0,.6-4.12v-4a22.26,22.26,0,0,0-.44-5.4,2.8,2.8,0,0,0-1.79-2,16.74,16.74,0,0,0-4.64-.56,10.51,10.51,0,0,1-.48-3.68c2,.16,5.28.24,9.75.24q6,0,9.36-.16a10.62,10.62,0,0,1-.48,3.6,4.7,4.7,0,0,0-2.48.6,3.24,3.24,0,0,0-1,2.12,34.18,34.18,0,0,0-.28,5.28v3.59a21.89,21.89,0,0,0,.2,3.16,6.8,6.8,0,0,0,.84,2.44,29.62,29.62,0,0,1-9.08,4.36,40.74,40.74,0,0,1-11.87,1.64A26.56,26.56,0,0,1,1063.39,130.53Z"/><path class="cls-2" d="M1184.76,128a19.05,19.05,0,0,0,5.48,1,11.1,11.1,0,0,1-.48,3.6,49.24,49.24,0,0,0-6,.48,40.19,40.19,0,0,0-5.64,1q-2.55-3.53-6.23-7.84a22.35,22.35,0,0,1-7,6,17.43,17.43,0,0,1-8.11,1.88,17.61,17.61,0,0,1-9.84-2.52,14.65,14.65,0,0,1-5.56-6.48,21,21,0,0,1-1.71-8.43,17.15,17.15,0,0,1,2.79-9.56,27.24,27.24,0,0,1,7.44-7.47,24,24,0,0,1-3.2-11.76,11.5,11.5,0,0,1,1.56-5.83,11.72,11.72,0,0,1,4.56-4.4,14.07,14.07,0,0,1,7-1.68,23.38,23.38,0,0,1,5.84.64,19.74,19.74,0,0,1,5,2.16,45.34,45.34,0,0,0-.48,6.87c0,1.12,0,2,.08,2.48a10.8,10.8,0,0,1-4.24.64q-.32-5-1.88-7.15a5.62,5.62,0,0,0-4.84-2.12,6,6,0,0,0-4.55,1.84,6.93,6.93,0,0,0-1.76,5,15.82,15.82,0,0,0,1.52,6.84,49.37,49.37,0,0,0,6,8.84q5.35,6.63,13.6,15.59a41,41,0,0,0,5-11,7.06,7.06,0,0,0,.32-2.16,3.42,3.42,0,0,0-1.44-2.95,12.44,12.44,0,0,0-4.87-1.68,11.44,11.44,0,0,1-.56-3.36q3.36.24,8.15.24,5.28,0,8-.24a14.12,14.12,0,0,1-.32,3.28,8,8,0,0,0-3.56,2.28,11.59,11.59,0,0,0-2,4.27,51.78,51.78,0,0,1-2.4,6.76,79.7,79.7,0,0,1-3.75,7.4l4.39,4.71A10.67,10.67,0,0,0,1184.76,128Zm-21-1.12a18.09,18.09,0,0,0,5.4-3.68l-5.68-6.39q-7.35-8.4-7-8c-2.3-2.77-4-5-5-6.55a19.54,19.54,0,0,0-3.76,5.43,15.88,15.88,0,0,0-1.36,6.72c0,4.26,1.09,7.6,3.28,10a10.57,10.57,0,0,0,8.16,3.6A15.43,15.43,0,0,0,1163.81,126.85Z"/><path class="cls-2" d="M398.2,172.43v23.51h5.51q5,0,6.92-1.32t2-5.16a13.78,13.78,0,0,1,3.84-.56c-.11,1.81-.16,4.72-.16,8.71q0,6.57.16,9.28a14.47,14.47,0,0,1-3.68-.4q-.33-4.16-2.2-5.64c-1.25-1-3.53-1.48-6.84-1.48H398.2v12.16a14.93,14.93,0,0,0,.71,5.23,4.36,4.36,0,0,0,2.2,2.48,11.8,11.8,0,0,0,4.2.84,10.86,10.86,0,0,1,.4,3.44q-3.68-.24-10.07-.24c-5.18,0-8.8.08-10.88.24a10.86,10.86,0,0,1,.4-3.44c2.13-.1,3.59-.62,4.36-1.56s1.16-2.73,1.16-5.39V179.38q0-4-1.16-5.39c-.77-.93-2.23-1.45-4.36-1.56a10.86,10.86,0,0,1-.4-3.44q5.28.24,13.36.24,14.31,0,22.22-.24A107.62,107.62,0,0,0,422,181.62a5.69,5.69,0,0,1-3.6,1,11.37,11.37,0,0,0-3.23-7.31q-2.85-2.85-9.88-2.84Z"/><path class="cls-2" d="M440.77,174c-.77-.93-2.22-1.45-4.36-1.56A11.16,11.16,0,0,1,436,169q4.39.24,9.68.24c3.25,0,6.48-.08,9.67-.24a10.86,10.86,0,0,1-.4,3.44q-3.19.16-4.35,1.56c-.78.93-1.16,2.73-1.16,5.39v33.75c0,2.66.38,4.46,1.16,5.39s2.22,1.46,4.35,1.56a10.86,10.86,0,0,1,.4,3.44c-3.19-.16-6.42-.24-9.67-.24q-5.6,0-9.68.24a11.16,11.16,0,0,1,.4-3.44c2.14-.1,3.59-.62,4.36-1.56s1.16-2.73,1.16-5.39V179.38Q441.93,175.39,440.77,174Z"/><path class="cls-2" d="M522.29,169a13.27,13.27,0,0,1-.4,3.44,3.75,3.75,0,0,0-2.84,1,6.65,6.65,0,0,0-1.44,3.48,41,41,0,0,0-.44,6.83v39.5a10,10,0,0,1-3.44.48l-33-43.1v27.67a40,40,0,0,0,.48,7.12,6.25,6.25,0,0,0,1.68,3.55,4.85,4.85,0,0,0,3.36,1.08,11.66,11.66,0,0,1,.4,3.44q-3.6-.24-7.92-.24c-3.31,0-6,.08-8,.24a11.66,11.66,0,0,1,.4-3.44,4.85,4.85,0,0,0,3.36-1.08,6.25,6.25,0,0,0,1.68-3.55,40,40,0,0,0,.48-7.12v-33l-.32-.4a6.66,6.66,0,0,0-2.12-1.84,9.2,9.2,0,0,0-3.08-.64,13.27,13.27,0,0,1-.4-3.44c1.6.16,3.58.24,5.92.24A49.9,49.9,0,0,0,482,169l31.1,41.26V183.78a37.24,37.24,0,0,0-.48-6.87,6,6,0,0,0-1.68-3.44,5,5,0,0,0-3.36-1,23.37,23.37,0,0,1-.4-3.44c2.3.16,4.8.24,7.52.24Q519,169.23,522.29,169Z"/><path class="cls-2" d="M584.65,223.52q-4.78-.24-9.11-.24t-9,.24a8.1,8.1,0,0,1,.56-3.44,9.67,9.67,0,0,0,3.16-.72,1.67,1.67,0,0,0,.92-1.6,13.83,13.83,0,0,0-1.2-3.91l-3.52-8.16q-12.7,0-21.11.32l-2.15,5.52a15.87,15.87,0,0,0-1.28,5.27,2.75,2.75,0,0,0,1,2.36,5.86,5.86,0,0,0,3.15.92,9,9,0,0,1,.56,3.44q-2.72-.24-7.59-.24-2.09,0-6.64.24a8.94,8.94,0,0,1,.56-3.36,5,5,0,0,0,3.28-2.08,34.69,34.69,0,0,0,3.12-6.55l16.55-42.46a13.8,13.8,0,0,1,3.12-.32l19,43.66a31.16,31.16,0,0,0,3.15,5.91,4.8,4.8,0,0,0,3,1.76A11.92,11.92,0,0,1,584.65,223.52ZM564.9,202.09l-6.07-14.23q-2.4-5.52-3.52-8.72-.88,2.73-3,8.64l-5.52,14.31Z"/><path class="cls-2" d="M649.1,169a13.27,13.27,0,0,1-.4,3.44,3.77,3.77,0,0,0-2.84,1,6.65,6.65,0,0,0-1.44,3.48,41,41,0,0,0-.44,6.83v39.5a10,10,0,0,1-3.44.48l-33-43.1v27.67a40,40,0,0,0,.48,7.12,6.25,6.25,0,0,0,1.68,3.55,4.85,4.85,0,0,0,3.36,1.08,11.66,11.66,0,0,1,.4,3.44q-3.6-.24-7.92-.24c-3.3,0-6,.08-8,.24a11.33,11.33,0,0,1,.4-3.44,4.84,4.84,0,0,0,3.35-1.08,6.25,6.25,0,0,0,1.68-3.55,40,40,0,0,0,.48-7.12v-33l-.32-.4a6.56,6.56,0,0,0-2.12-1.84,9.14,9.14,0,0,0-3.07-.64,12.85,12.85,0,0,1-.4-3.44q2.4.24,5.91.24a49.9,49.9,0,0,0,5.36-.24l31.1,41.26V183.78a37.24,37.24,0,0,0-.48-6.87,6,6,0,0,0-1.68-3.44,5,5,0,0,0-3.35-1A22,22,0,0,1,634,169q3.43.24,7.51.24Q645.82,169.23,649.1,169Z"/><path class="cls-2" d="M673.84,220.44a24.27,24.27,0,0,1-9-9.95,32,32,0,0,1-3.24-14.63,28.43,28.43,0,0,1,3.72-15,24.24,24.24,0,0,1,9.83-9.27,28.54,28.54,0,0,1,13.16-3.12,38.37,38.37,0,0,1,9,1,45.42,45.42,0,0,1,8.72,3.16,64.27,64.27,0,0,0-.88,12.39,11.23,11.23,0,0,1-4.24.72q-.31-8-3.28-11c-2-2-4.88-3-8.71-3a17.14,17.14,0,0,0-17,11,28.89,28.89,0,0,0-2,10.88,33.3,33.3,0,0,0,2.43,13,20.91,20.91,0,0,0,7.08,9.12,18.21,18.21,0,0,0,10.87,3.31,25.2,25.2,0,0,0,7.76-1.28,32.52,32.52,0,0,0,7.44-3.43,4.27,4.27,0,0,1,.92,1.16,4,4,0,0,1,.52,1.31,35.93,35.93,0,0,1-9.48,5.44A30.5,30.5,0,0,1,687,224,24.59,24.59,0,0,1,673.84,220.44Z"/><path class="cls-2" d="M762.16,211.53a69,69,0,0,0-2.48,11.91q-6.24-.16-17.11-.16-14.72,0-20.71.24a10.86,10.86,0,0,1,.4-3.44,8.35,8.35,0,0,0,3.4-.8A3.56,3.56,0,0,0,727.3,217a17.79,17.79,0,0,0,.48-4.79V179.38q0-4-1.16-5.39c-.78-.93-2.23-1.45-4.36-1.56a10.86,10.86,0,0,1-.4-3.44q4.71.24,13.43.24,14.55,0,22.47-.24a105.47,105.47,0,0,0,1.68,12.63,5.69,5.69,0,0,1-3.6,1,11.43,11.43,0,0,0-3.24-7.31q-2.83-2.85-9.87-2.84h-7.44v21.91h5q5,0,6.91-1.32t2-5.16a13.78,13.78,0,0,1,3.84-.56q-.16,2.72-.16,8.72,0,6.55.16,9.27a14.52,14.52,0,0,1-3.68-.4q-.32-4.15-2.2-5.64c-1.25-1-3.53-1.48-6.83-1.48h-5v14.48a14.39,14.39,0,0,0,.56,4.59A3.58,3.58,0,0,0,738,219a12.61,12.61,0,0,0,4.6.64h.48a24.84,24.84,0,0,0,8.47-1.12,9,9,0,0,0,4.36-3.11,25.47,25.47,0,0,0,2.76-5.84A8.48,8.48,0,0,1,762.16,211.53Z"/><path class="cls-2" d="M807.57,222.76a38.48,38.48,0,0,1-7.91-3.88,73.61,73.61,0,0,0,.72-11.35,17.14,17.14,0,0,1,4.31-.48c.22,4.26,1.29,7.52,3.24,9.75s5,3.36,9.08,3.36q5.19,0,7.71-2.28a7.74,7.74,0,0,0,2.52-6,8.6,8.6,0,0,0-1.6-5.28,13.62,13.62,0,0,0-3.92-3.56,69.34,69.34,0,0,0-6.47-3.32,76.81,76.81,0,0,1-7.68-4.15,16.71,16.71,0,0,1-4.92-4.92,13.67,13.67,0,0,1-2-7.72q0-6.72,4.31-10.55t11.76-3.84a27.78,27.78,0,0,1,7.51,1A20,20,0,0,1,830,172a83.77,83.77,0,0,0,.48,10.55,11.93,11.93,0,0,1-4.48.72c-.75-4.37-1.86-7.34-3.36-8.91a8,8,0,0,0-6.07-2.36,9.78,9.78,0,0,0-6.64,2.08,7.29,7.29,0,0,0-2.4,5.83,8.84,8.84,0,0,0,1.64,5.36,13.78,13.78,0,0,0,4,3.68q2.35,1.44,6.51,3.52a65.86,65.86,0,0,1,7.56,4.08,17,17,0,0,1,4.84,4.79,12.75,12.75,0,0,1,2,7.28,15.32,15.32,0,0,1-2,7.63,14.13,14.13,0,0,1-6.08,5.6A22.12,22.12,0,0,1,815.89,224,25.85,25.85,0,0,1,807.57,222.76Z"/><path class="cls-2" d="M860.18,220.36a24.92,24.92,0,0,1-9.31-10,30.42,30.42,0,0,1-3.32-14.27A29,29,0,0,1,851,181.82a25.29,25.29,0,0,1,9.51-9.79,26.09,26.09,0,0,1,13.4-3.52A26.81,26.81,0,0,1,887.57,172a24.45,24.45,0,0,1,9.43,9.75,31.67,31.67,0,0,1,0,28.55A25.56,25.56,0,0,1,873.94,224,26,26,0,0,1,860.18,220.36Zm24.19-3.16a18.07,18.07,0,0,0,5.8-7.87,29.85,29.85,0,0,0,2-11.16,32.12,32.12,0,0,0-2.6-13,23.07,23.07,0,0,0-7.16-9.35,16.4,16.4,0,0,0-10.15-3.44,14.07,14.07,0,0,0-8.48,2.72,17.93,17.93,0,0,0-5.88,7.59,28.16,28.16,0,0,0-2.11,11.28,34.91,34.91,0,0,0,2.35,12.87,22.9,22.9,0,0,0,6.84,9.63,16.2,16.2,0,0,0,10.55,3.64A14.22,14.22,0,0,0,884.37,217.2Z"/><path class="cls-2" d="M924.67,220.44a24.22,24.22,0,0,1-9-9.95,32,32,0,0,1-3.24-14.63,28.43,28.43,0,0,1,3.72-15,24.21,24.21,0,0,1,9.84-9.27,28.5,28.5,0,0,1,13.15-3.12,38.37,38.37,0,0,1,9,1,45.42,45.42,0,0,1,8.72,3.16,64.27,64.27,0,0,0-.88,12.39,11.19,11.19,0,0,1-4.24.72q-.32-8-3.28-11t-8.71-3a17.11,17.11,0,0,0-17,11,28.7,28.7,0,0,0-2,10.88,33.12,33.12,0,0,0,2.44,13,20.82,20.82,0,0,0,7.07,9.12,18.22,18.22,0,0,0,10.88,3.31,25.14,25.14,0,0,0,7.75-1.28,32.32,32.32,0,0,0,7.44-3.43,4.09,4.09,0,0,1,.92,1.16,3.77,3.77,0,0,1,.52,1.31,35.77,35.77,0,0,1-9.48,5.44A30.5,30.5,0,0,1,937.82,224,24.53,24.53,0,0,1,924.67,220.44Z"/><path class="cls-2" d="M977.44,174c-.78-.93-2.23-1.45-4.36-1.56a10.86,10.86,0,0,1-.4-3.44q4.4.24,9.68.24,4.88,0,9.67-.24a10.86,10.86,0,0,1-.4,3.44c-2.13.11-3.59.63-4.36,1.56s-1.16,2.73-1.16,5.39v33.75q0,4,1.16,5.39c.77.94,2.23,1.46,4.36,1.56a10.86,10.86,0,0,1,.4,3.44q-4.8-.24-9.67-.24c-3.74,0-7,.08-9.68.24a10.86,10.86,0,0,1,.4-3.44c2.13-.1,3.58-.62,4.36-1.56s1.16-2.73,1.16-5.39V179.38Q978.6,175.39,977.44,174Z"/><path class="cls-2" d="M1047.68,211.53a69.9,69.9,0,0,0-2.48,11.91q-6.24-.16-17.11-.16-14.71,0-20.71.24a10.86,10.86,0,0,1,.4-3.44,8.31,8.31,0,0,0,3.4-.8,3.56,3.56,0,0,0,1.64-2.24,17.79,17.79,0,0,0,.48-4.79V179.38q0-4-1.16-5.39c-.77-.93-2.23-1.45-4.36-1.56a10.86,10.86,0,0,1-.4-3.44q4.73.24,13.43.24,14.57,0,22.47-.24a105.47,105.47,0,0,0,1.68,12.63,5.69,5.69,0,0,1-3.6,1,11.37,11.37,0,0,0-3.23-7.31q-2.85-2.85-9.88-2.84h-7.44v21.91h5c3.36,0,5.66-.44,6.92-1.32s1.9-2.6,2-5.16a13.76,13.76,0,0,1,3.83-.56c-.1,1.81-.16,4.72-.16,8.72,0,4.37.06,7.46.16,9.27a14.44,14.44,0,0,1-3.67-.4q-.33-4.15-2.2-5.64c-1.26-1-3.53-1.48-6.84-1.48h-5v14.48a14.39,14.39,0,0,0,.56,4.59,3.61,3.61,0,0,0,2.12,2.2,12.61,12.61,0,0,0,4.6.64h.48a24.94,24.94,0,0,0,8.48-1.12,9,9,0,0,0,4.35-3.11,25.06,25.06,0,0,0,2.76-5.84A8.42,8.42,0,0,1,1047.68,211.53Z"/><path class="cls-2" d="M1099.89,171.87c0,2.13.19,5.44.56,9.91a8.36,8.36,0,0,1-4,.72c-.1-3.2-.88-5.62-2.31-7.27s-3.68-2.48-6.72-2.48h-4.24v40.38a13.73,13.73,0,0,0,.48,4.19,3.25,3.25,0,0,0,1.8,2,11.59,11.59,0,0,0,4,.76,11.16,11.16,0,0,1,.4,3.44c-3.41-.16-6.91-.24-10.48-.24q-6,0-10.47.24a10.86,10.86,0,0,1,.4-3.44,12,12,0,0,0,4-.76,3.42,3.42,0,0,0,1.88-2,13,13,0,0,0,.51-4.15V172.75h-4.07a11.47,11.47,0,0,0-5.68,1.16,6.53,6.53,0,0,0-2.84,3.12,26.59,26.59,0,0,0-1.48,5.47,7.76,7.76,0,0,1-3.84-.72A73.23,73.23,0,0,0,1059,169q4.48.24,20.39.24,16.15,0,20.55-.24Z"/><path class="cls-2" d="M1157.3,169.07a15.29,15.29,0,0,1-.32,3.12,9.33,9.33,0,0,0-4.16,2.64,25,25,0,0,0-3.92,6l-10.79,21.67v7.76a32.94,32.94,0,0,0,.4,6.23,3.57,3.57,0,0,0,1.6,2.52,12.28,12.28,0,0,0,4.16,1.08,10.94,10.94,0,0,1,.48,3.44l-3.76-.08q-4.48-.16-6.4-.16c-4.26,0-7.89.05-10.87.16a10.64,10.64,0,0,1,.48-3.36,12.27,12.27,0,0,0,4.28-.88,3.43,3.43,0,0,0,1.68-2.32,25,25,0,0,0,.43-5.59v-8.72l-13.27-25.5a11.2,11.2,0,0,0-2.52-3.6,5.44,5.44,0,0,0-3.39-1.12,10.34,10.34,0,0,1-.48-3.28q4.47.17,8.31.16,8.23,0,10.71-.16a11.49,11.49,0,0,1-.4,3.12q-3.67.31-3.67,2.4a10.59,10.59,0,0,0,1.44,4.16q4.79,9.19,9.35,19.42,4.39-9.66,8.64-18.23a12.87,12.87,0,0,0,1.68-4.87,2,2,0,0,0-.92-1.8,7.81,7.81,0,0,0-2.92-.92,12.43,12.43,0,0,1-.56-3.28q1.92.17,7.83.16Q1153.63,169.23,1157.3,169.07Z"/></g></g></svg>